<svg id="Layer_1" data-name="Layer 1" xmlns="http://www.w3.org/2000/svg" viewBox="0 0 1399.12 576.65"><defs><style>.cls-1{font-size:103px;stroke:#fff;stroke-miterlimit:10;stroke-width:5px;font-family:NexaBold, Nexa Bold;}.cls-2{letter-spacing:0.02em;}.cls-3{letter-spacing:0.03em;}.cls-4{letter-spacing:0.02em;}.cls-5{letter-spacing:0.03em;}.cls-6{letter-spacing:0.03em;}.cls-7{letter-spacing:-0.03em;}.cls-8{letter-spacing:0.03em;}.cls-9{fill:#fff;}</style></defs><title>Untitled-2</title><text class="cls-1" transform="translate(252.45 418.83)">S<tspan class="cls-2" x="68.08" y="0">T</tspan><tspan x="133.59" y="0">UD</tspan><tspan class="cls-2" x="282.53" y="0">E</tspan><tspan x="348.96" y="0">NTS S</tspan><tspan class="cls-3" x="642.71" y="0">C</tspan><tspan x="713.99" y="0">I</tspan><tspan class="cls-4" x="740.36" y="0">E</tspan><tspan x="806.79" y="0">N</tspan><tspan class="cls-5" x="880.23" y="0">C</tspan><tspan x="951.4" y="0">E </tspan><tspan class="cls-6" x="0" y="123.6">C</tspan><tspan x="71.17" y="123.6">OMMER</tspan><tspan class="cls-6" x="464.22" y="123.6">C</tspan><tspan x="535.39" y="123.6">E </tspan><tspan class="cls-7" x="620.46" y="123.6">A</tspan><tspan x="694.42" y="123.6">C</tspan><tspan class="cls-8" x="762.4" y="123.6">A</tspan><tspan x="842.84" y="123.6">DEMY</tspan></text><path class="cls-9" d="M164.33,116.17a1.5,1.5,0,0,0,0-3,1.5,1.5,0,0,0,0,3Z" transform="translate(-162.88 -78.5)"/><path class="cls-9" d="M493.67,189.5a1.5,1.5,0,0,0,0-3,1.5,1.5,0,0,0,0,3Z" transform="translate(-162.88 -78.5)"/><path class="cls-9" d="M493.67,189.5a1.5,1.5,0,0,0,0-3,1.5,1.5,0,0,0,0,3Z" transform="translate(-162.88 -78.5)"/><path class="cls-9" d="M493.67,189.5a1.5,1.5,0,0,0,0-3,1.5,1.5,0,0,0,0,3Z" transform="translate(-162.88 -78.5)"/><path class="cls-9" d="M723,81.5a1.5,1.5,0,0,0,0-3,1.5,1.5,0,0,0,0,3Z" transform="translate(-162.88 -78.5)"/><path class="cls-9" d="M813.67,210.83a1.5,1.5,0,0,0,0-3,1.5,1.5,0,0,0,0,3Z" transform="translate(-162.88 -78.5)"/><path class="cls-9" d="M813.67,210.83a1.5,1.5,0,0,0,0-3,1.5,1.5,0,0,0,0,3Z" transform="translate(-162.88 -78.5)"/><path class="cls-9" d="M813.67,210.83a1.5,1.5,0,0,0,0-3,1.5,1.5,0,0,0,0,3Z" transform="translate(-162.88 -78.5)"/><path class="cls-9" d="M813.67,210.83a1.5,1.5,0,0,0,0-3,1.5,1.5,0,0,0,0,3Z" transform="translate(-162.88 -78.5)"/><path class="cls-9" d="M814.25,207.24Q696,173,574.79,150.69q-34.32-6.3-68.8-11.62c-1.89-.3-2.71,2.59-.8,2.89a2459.7,2459.7,0,0,1,241,49.7q33.76,8.76,67.29,18.47a1.5,1.5,0,0,0,.79-2.89Z" transform="translate(-162.88 -78.5)"/><path class="cls-9" d="M485.57,139.73c28,14.86,58.53,23.65,89,32q50.91,14,101.83,27.9a1.5,1.5,0,0,0,.8-2.89L577.09,169.32c-30.77-8.44-61.68-17.16-90-32.18-1.71-.9-3.23,1.69-1.52,2.59Z" transform="translate(-162.88 -78.5)"/><path class="cls-9" d="M945.67,96.17a1.5,1.5,0,0,0,0-3,1.5,1.5,0,0,0,0,3Z" transform="translate(-162.88 -78.5)"/><path class="cls-9" d="M945.67,96.17a1.5,1.5,0,0,0,0-3,1.5,1.5,0,0,0,0,3Z" transform="translate(-162.88 -78.5)"/></svg>